<svg width="1280" height="418" viewBox="0 0 1280 418" fill="none" xmlns="http://www.w3.org/2000/svg">
    <path d="M1 194L1281.02 83L1281.02 225L1.00002 225L1 194Z" fill="white"/>
    <path fill-rule="evenodd" clip-rule="evenodd" d="M-1.97772 160.897L37.5055 161.302C91.918 161.771 200.743 162.708 309.315 154.911C417.886 147.114 526.205 130.582 634.548 114.923C742.892 99.265 851.261 84.4801 959.807 75.8094C1068.35 67.1387 1177.08 64.5823 1231.44 63.3041L1286.72 61.8662L1285.42 82.8253L1232.15 87.7612C1177.89 92.5333 1069.37 102.077 960.846 111.622C852.325 121.166 743.804 130.71 635.283 140.254C526.762 149.798 418.241 159.342 309.72 168.886C201.199 178.431 92.6779 187.975 38.4174 192.747L-4.03529 193.833L-1.97772 160.897Z" fill="white"/>
</svg>