<svg width="19" height="19" viewBox="0 0 19 19" fill="none" xmlns="http://www.w3.org/2000/svg">
    <path d="M17.5 17.75L12 12.25M13.8333 7.66667C13.8333 8.50932 13.6674 9.34371 13.3449 10.1222C13.0224 10.9007 12.5498 11.6081 11.9539 12.2039C11.3581 12.7998 10.6507 13.2724 9.87222 13.5949C9.09371 13.9174 8.25932 14.0833 7.41667 14.0833C6.57402 14.0833 5.73962 13.9174 4.96111 13.5949C4.18261 13.2724 3.47524 12.7998 2.8794 12.2039C2.28356 11.6081 1.81091 10.9007 1.48844 10.1222C1.16597 9.34371 1 8.50932 1 7.66667C1 5.96486 1.67604 4.33276 2.8794 3.1294C4.08276 1.92604 5.71486 1.25 7.41667 1.25C9.11847 1.25 10.7506 1.92604 11.9539 3.1294C13.1573 4.33276 13.8333 5.96486 13.8333 7.66667Z" stroke="white" stroke-width="1.5" stroke-linecap="round" stroke-linejoin="round"/>
</svg>