<svg width="20" height="20" viewBox="0 0 20 20" fill="none" xmlns="http://www.w3.org/2000/svg">
    <path d="M19.7833 6.30765C19.7833 5.45611 19.6158 4.63088 19.2881 3.85109C18.97 3.10001 18.5155 2.42547 17.9367 1.84661C17.3578 1.26775 16.6833 0.813274 15.9322 0.49514C15.1548 0.165047 14.3272 0 13.4756 0C12.6241 0 11.7989 0.167439 11.0191 0.49514C10.268 0.813274 9.59344 1.26775 9.01458 1.84661C8.43572 2.42547 7.98125 3.10001 7.66311 3.85109C7.33302 4.62848 7.16797 5.45611 7.16797 6.30765C7.16797 7.37209 7.43588 8.41499 7.94537 9.34308L0.393884 16.8874C0.219269 17.062 0.164254 17.3275 0.271893 17.5787C0.293421 17.6313 0.3293 17.6791 0.369964 17.7198L2.06109 19.4109C2.10176 19.4516 2.1496 19.4851 2.20222 19.509C2.45338 19.6166 2.71889 19.564 2.8935 19.387L3.9388 18.3417L5.44336 19.8462C5.48402 19.8869 5.53186 19.9204 5.58446 19.9443C5.83562 20.052 6.10115 19.9994 6.27574 19.8223L7.94295 18.1551C7.98362 18.1145 8.0171 18.0666 8.04102 18.014C8.14866 17.7629 8.09604 17.4973 7.91903 17.3227L6.4384 15.8421L10.4378 11.8403C11.3635 12.3498 12.4088 12.6177 13.4732 12.6177C14.3248 12.6177 15.15 12.4503 15.9298 12.1226C16.6808 11.8044 17.3554 11.3499 17.9343 10.7711C18.5131 10.1923 18.9676 9.51772 19.2857 8.76661C19.6158 7.98443 19.7833 7.1592 19.7833 6.30765ZM15.6858 8.52024C15.095 9.11106 14.308 9.43637 13.4733 9.43637C12.6385 9.43637 11.8515 9.11106 11.2607 8.52024C10.6699 7.92942 10.3422 7.14246 10.3422 6.30765C10.3422 5.47046 10.6675 4.68589 11.2583 4.09507C11.8491 3.50425 12.6361 3.17894 13.4709 3.17894C14.3057 3.17894 15.0926 3.50425 15.6835 4.09507C16.2743 4.68589 16.5996 5.47285 16.5996 6.30765C16.6043 7.14246 16.279 7.92942 15.6858 8.52024Z" fill="white"/>
</svg>