<svg width="18" height="20" viewBox="0 0 18 20" fill="none" xmlns="http://www.w3.org/2000/svg">
    <path d="M15.75 7.5H15V5C15 2.2425 12.309 0 9 0C5.691 0 3 2.2425 3 5V7.5H2.25C1.01 7.5 0 8.34083 0 9.375V18.125C0 19.1592 1.01 20 2.25 20H15.75C16.99 20 18 19.1592 18 18.125V9.375C18 8.34083 16.99 7.5 15.75 7.5ZM5 5C5 3.16167 6.794 1.66667 9 1.66667C11.206 1.66667 13 3.16167 13 5V7.5H5V5ZM10 13.935V15.8333C10 16.2933 9.553 16.6667 9 16.6667C8.447 16.6667 8 16.2933 8 15.8333V13.935C7.405 13.6458 7 13.1142 7 12.5C7 11.5808 7.897 10.8333 9 10.8333C10.103 10.8333 11 11.5808 11 12.5C11 13.1142 10.595 13.6458 10 13.935Z" fill="white"/>
</svg>