<svg width="20" height="20" viewBox="0 0 20 20" fill="none" xmlns="http://www.w3.org/2000/svg">
    <g clip-path="url(#clip0)">
        <path d="M17.6299 10.0027C17.5406 10.4513 17.1428 10.7781 16.6658 10.7984C16.5156 10.8045 16.3877 10.9141 16.3592 11.0622C16.3288 11.2104 16.4039 11.3606 16.5399 11.4235C16.9722 11.6265 17.2138 12.0812 17.1224 12.5298L17.0372 12.956C16.9255 13.5183 16.3044 13.8694 15.7605 13.7354C15.6082 13.6989 15.4519 13.6705 15.2977 13.64C15.0703 13.5954 14.843 13.5487 14.6157 13.504C14.3152 13.4432 14.0148 13.3843 13.7145 13.3234C13.3572 13.2524 12.9979 13.1793 12.6407 13.1082C12.2409 13.0271 11.841 12.9479 11.4411 12.8667C11.0149 12.7815 10.5866 12.6962 10.1603 12.6089C9.72187 12.5217 9.28346 12.4323 8.84706 12.3451C8.41269 12.2578 7.98035 12.1705 7.54596 12.0832C7.13191 12 6.71781 11.9168 6.30376 11.8336C5.92419 11.7585 5.54665 11.6813 5.16709 11.6062C4.83826 11.5413 4.50944 11.4743 4.18265 11.4093C3.92081 11.3566 3.65897 11.3038 3.3951 11.251C3.21445 11.2145 3.03378 11.178 2.85315 11.1414C2.76991 11.1252 2.68671 11.1069 2.60349 11.0907C2.59943 11.0907 2.59537 11.0886 2.59129 11.0886C2.63594 11.2997 2.61564 11.525 2.51822 11.7361C2.31319 12.1786 1.83619 12.41 1.37748 12.3207C1.24149 12.2943 1.09332 12.3451 1.03445 12.4709L0.851774 12.8667C0.792931 12.9925 0.851774 13.1387 0.959372 13.226C0.97967 13.2422 15.6103 19.9871 15.6346 19.9932C15.7706 20.0196 15.9188 19.9689 15.9776 19.843L16.1603 19.4472C16.2192 19.3214 16.1603 19.1752 16.0527 19.088C15.6874 18.7977 15.5534 18.2842 15.7584 17.8417C15.9634 17.3992 16.4404 17.1678 16.8991 17.2571C17.0351 17.2835 17.1833 17.2328 17.2422 17.1069L17.4248 16.7111C17.4837 16.5853 17.4248 16.4391 17.3173 16.3518C16.9519 16.0616 16.8179 15.548 17.0229 15.1056C17.2279 14.6631 17.7049 14.4317 18.1637 14.521C18.2997 14.5474 18.4478 14.4966 18.5067 14.3708L18.6894 13.975C18.7482 13.8491 18.6894 13.703 18.5818 13.6157C18.2164 13.3255 18.0825 12.8119 18.2875 12.3694C18.4925 11.927 18.9695 11.6956 19.4282 11.7849C19.5642 11.8113 19.7124 11.7605 19.7712 11.6347L19.9722 11.1962C20.031 11.0704 19.9762 10.9222 19.8504 10.8634L17.6643 9.85458L17.6299 10.0027Z" fill="white"/>
        <path d="M0.196173 9.8622C0.220531 9.87438 16.0142 13.0428 16.0406 13.0428C16.1786 13.0367 16.3126 12.9515 16.3389 12.8175L16.4242 12.3913C16.4506 12.2553 16.3613 12.1254 16.2354 12.0665C15.8132 11.8676 15.5635 11.4007 15.659 10.9217C15.7544 10.4427 16.1664 10.1078 16.6333 10.0875C16.7713 10.0814 16.9052 9.99614 16.9316 9.86218L16.9946 9.54959L17.0169 9.4339C17.0433 9.2979 16.954 9.168 16.8281 9.10914C16.4059 8.91022 16.1563 8.44337 16.2517 7.96437C16.3471 7.48532 16.7591 7.15041 17.226 7.13011C17.364 7.12403 17.498 7.03878 17.5243 6.90481L17.6096 6.47856C17.636 6.34257 17.5467 6.21266 17.4208 6.1538C16.9986 5.95488 16.749 5.48803 16.8444 5.00901C16.9398 4.52999 17.3518 4.19507 17.8187 4.17478C17.9567 4.16869 18.0906 4.08344 18.117 3.94947L18.2124 3.47654C18.2388 3.34054 18.1515 3.20861 18.0156 3.18222C18.0156 3.18222 2.14477 -0.000450134 2.12854 -0.000450134C2.01081 -0.000450134 1.90729 0.0827702 1.88293 0.200497L1.78753 0.673432C1.76115 0.809426 1.85046 0.939331 1.9763 0.998194C2.39849 1.19711 2.64816 1.66396 2.55276 2.14298C2.45736 2.62201 2.04531 2.95692 1.57847 2.97722C1.44042 2.9833 1.30648 3.06855 1.28009 3.20252L1.19484 3.62877C1.16845 3.76476 1.25776 3.89467 1.38361 3.95353C1.8058 4.15245 2.05548 4.6193 1.96006 5.09832C1.86467 5.57734 1.45262 5.91226 0.985775 5.93255C0.84775 5.93864 0.713785 6.02389 0.687398 6.15786L0.602148 6.58411C0.575761 6.7201 0.665091 6.85001 0.790917 6.90887C1.21313 7.10779 1.46279 7.57463 1.36737 8.05366C1.27197 8.5327 0.859929 8.86761 0.393081 8.88791C0.255057 8.894 0.121092 8.97925 0.0947052 9.11322L0.00945488 9.53947C-0.0189822 9.67546 0.0703074 9.80334 0.196173 9.8622ZM13.7246 4.65991C13.7794 4.38589 14.0473 4.20727 14.3213 4.26208C14.5954 4.31688 14.774 4.58481 14.7192 4.85883L14.0494 8.1917L13.6373 10.2458C13.5886 10.4874 13.3775 10.6538 13.14 10.6538C13.1075 10.6538 13.073 10.6498 13.0406 10.6437C12.7665 10.5889 12.5879 10.3209 12.6427 10.0469L13.1035 7.75532L13.7246 4.65991ZM4.57439 2.82297C4.62919 2.54896 4.89712 2.37034 5.17114 2.42514C5.44516 2.47994 5.62378 2.74787 5.56898 3.02189L5.33758 4.17277L5.07576 5.47791L4.86467 6.52932L4.48916 8.40889C4.44046 8.65043 4.22935 8.81689 3.99186 8.81689C3.95939 8.81689 3.92488 8.81283 3.89243 8.80674C3.87822 8.80469 3.86401 8.80063 3.85183 8.79659C3.60014 8.7235 3.44383 8.46978 3.49662 8.20999L3.5717 7.83042L3.76859 6.84802L4.57439 2.82297Z" fill="white"/>
    </g>
    <defs>
        <clipPath id="clip0">
            <rect width="20" height="20" fill="white"/>
        </clipPath>
    </defs>
</svg>